# xmcd CD database file generated by Grip 3.0.0
# 
# Track frame offsets:
#       150
#       18335
#       36480
#       63090
# 
# Disc length: 1093 seconds
# 
# Revision: 4
# Processed by: cddbd v1.4PL0 Copyright (c) Steve Scherf et al.
# Submitted via: Grip 3.0.0
# 
DISCID=2b044304
DTITLE=Rednex - The Spirit Of The Hawk
DYEAR=1900
DGENRE=Country
TTITLE0=The Spirit Of The Hawk
TTITLE1=The Spirit Of The Hawk - Instrumental
TTITLE2=The Spirit Of The Hawk - Bigg Remix
TTITLE3=Ranger Jack
EXTD=
EXTT0=
EXTT1=
EXTT2=
EXTT3=
PLAYORDER=
